:FULLY-SPECIFIED
:FORCE-ALL-JOINTS-BE-3DOF
:DEGREES
1
root -2.95645 16.8291 -36.2757 3.79203 -0.409345 -2.77144
lfemur -18.1857 -3.85478 -7.37129
ltibia 37.6337 0 0
lfoot -17.8071 6.78532 0
ltoes -26.1578 0 0
rfemur -19.1521 0.15077 14.7318
rtibia 40.3652 0 0
rfoot -23.1652 -2.86285 0
rtoes -21.0274 0 0
lowerback 7.02591 2.55716 -1.97249
upperback -3.14202 3.31583 1.27229
thorax -7.43554 1.75645 1.99661
lowerneck -4.68188 -4.04088 -6.84108
upperneck 4.69893 -5.30737 6.47589
head 2.76948 -2.5844 3.14763
lclavicle 1.91563e-15 -9.24349e-15 0
lhumerus -27.0689 -5.33108 89.6453
lradius 25.7364 0 0
lwrist -30.6252 0 0
lhand -28.8405 29.9909 0
lfingers 7.12502 0 0
lthumb -2.19771 59.9594 0
rclavicle 1.91563e-15 -9.24349e-15 0
rhumerus -32.8355 4.71181 -81.727
rradius 32.9783 0 0
rwrist 3.84135 0 0
rhand -24.1523 -25.0894 0
rfingers 7.12502 0 0
rthumb 2.33029 -55.0564 0
2
root -2.95726 16.8257 -36.2792 3.69672 -0.448592 -2.76314
lfemur -18.0746 -3.74143 -7.40029
ltibia 37.5935 0 0
lfoot -17.7854 6.78591 -0.00303543
ltoes -25.9538 0 0
rfemur -19.0932 0.0873493 14.7322
rtibia 40.3775 0 0
rfoot -23.1253 -2.71158 0.00138203
rtoes -20.6652 0 0
lowerback 7.19221 2.55698 -1.98598
upperback -3.11064 3.31179 1.27709
thorax -7.49894 1.75501 2.0044
lowerneck -4.69349 -4.02964 -6.84017
upperneck 4.6763 -5.29139 6.48718
head 2.76321 -2.57599 3.15183
lclavicle 2.20784e-15 -9.33596e-15 -2.99393e-33
lhumerus -27.051 -5.3387 89.6807
lradius 25.749 0 0
lwrist -30.5962 0 0
lhand -28.8451 29.972 1.32282e-05
lfingers 7.12502 0 0
lthumb -2.20217 59.9404 1.28124e-05
rclavicle 2.20784e-15 -9.33596e-15 -2.99393e-33
rhumerus -32.8165 4.65209 -81.6944
rradius 32.9043 0 0
rwrist 3.83745 0 0
rhand -24.1499 -25.1205 0.000170671
rfingers 7.12502 0 0
rthumb 2.33264 -55.0879 0.000131504
3
root -2.95806 16.8223 -36.2826 3.6017 -0.486329 -2.7543
lfemur -17.9681 -3.61959 -7.43009
ltibia 37.5614 0 0
lfoot -17.7679 6.77841 -0.00576373
ltoes -25.7329 0 0
rfemur -19.0375 0.0190894 14.7313
rtibia 40.397 0 0
rfoot -23.0887 -2.55908 0.00254489
rtoes -20.2946 0 0
lowerback 7.35749 2.55624 -1.9986
upperback -3.07994 3.30702 1.2817
thorax -7.56239 1.7532 2.01164
lowerneck -4.70238 -4.01845 -6.8391
upperneck 4.6542 -5.2756 6.49764
head 2.75659 -2.56773 3.15573
lclavicle 2.48927e-15 -9.42138e-15 -6.21067e-33
lhumerus -27.033 -5.34516 89.7153
lradius 25.7605 0 0
lwrist -30.5677 0 0
lhand -28.8496 29.9537 2.46673e-05
lfingers 7.12502 0 0
lthumb -2.20653 59.9221 2.38923e-05
rclavicle 2.48927e-15 -9.42138e-15 -6.21067e-33
rhumerus -32.7975 4.59221 -81.6612
rradius 32.8295 0 0
rwrist 3.83209 0 0
rhand -24.143 -25.1529 0.000272548
rfingers 7.12502 0 0
rthumb 2.33923 -55.1205 0.000200167
4
root -2.95887 16.8189 -36.2861 3.50705 -0.522577 -2.74493
lfemur -17.8661 -3.48969 -7.46061
ltibia 37.5371 0 0
lfoot -17.7547 6.76313 -0.00819077
ltoes -25.4961 0 0
rfemur -18.9849 -0.0537681 14.7293
rtibia 40.4233 0 0
rfoot -23.0553 -2.40553 0.00350359
rtoes -19.9161 0 0
lowerback 7.52163 2.55495 -2.01038
upperback -3.04992 3.30157 1.28612
thorax -7.62582 1.75102 2.01835
lowerneck -4.70864 -4.0073 -6.83785
upperneck 4.63264 -5.26003 6.50729
head 2.74963 -2.55964 3.15936
lclavicle 2.76005e-15 -9.49991e-15 -9.58056e-33
lhumerus -27.0148 -5.3505 89.749
lradius 25.7709 0 0
lwrist -30.5396 0 0
lhand -28.854 29.9359 3.44398e-05
lfingers 7.12502 0 0
lthumb -2.21078 59.9043 3.33583e-05
rclavicle 2.76005e-15 -9.49991e-15 -9.58056e-33
rhumerus -32.7784 4.53222 -81.6274
rradius 32.754 0 0
rwrist 3.82532 0 0
rhand -24.132 -25.1865 0.00031199
rfingers 7.12502 0 0
rthumb 2.3499 -55.1542 0.000212038
5
root -2.95967 16.8155 -36.2895 3.41284 -0.557353 -2.73508
lfemur -17.7686 -3.35214 -7.49178
ltibia 37.5204 0 0
lfoot -17.7454 6.74036 -0.0103242
ltoes -25.2441 0 0
rfemur -18.9354 -0.130982 14.7262
rtibia 40.4563 0 0
rfoot -23.025 -2.2511 0.00427311
rtoes -19.5306 0 0
lowerback 7.68453 2.55313 -2.02134
upperback -3.02058 3.29546 1.29036
thorax -7.68917 1.74849 2.02454
lowerneck -4.71238 -3.99622 -6.83645
upperneck 4.61161 -5.24467 6.51616
head 2.74237 -2.55171 3.16271
lclavicle 3.02032e-15 -9.57175e-15 -1.30398e-32
lhumerus -26.9966 -5.35474 89.7819
lradius 25.7803 0 0
lwrist -30.512 0 0
lhand -28.8583 29.9188 4.2664e-05
lfingers 7.12502 0 0
lthumb -2.21492 59.8871 4.13249e-05
rclavicle 3.02032e-15 -9.57175e-15 -1.30398e-32
rhumerus -32.7594 4.47219 -81.5931
rradius 32.6779 0 0
rwrist 3.81721 0 0
rhand -24.1169 -25.2212 0.000295405
rfingers 7.12502 0 0
rthumb 2.36448 -55.189 0.000173197
6
root -2.96048 16.8121 -36.293 3.31916 -0.590676 -2.72477
lfemur -17.6756 -3.20737 -7.52352
ltibia 37.511 0 0
lfoot -17.7401 6.71041 -0.0121734
ltoes -24.9778 0 0
rfemur -18.8888 -0.212309 14.7221
rtibia 40.4956 0 0
rfoot -22.9977 -2.09601 0.0048683
rtoes -19.1386 0 0
lowerback 7.84607 2.55079 -2.0315
upperback -2.99194 3.28873 1.29441
thorax -7.75238 1.74564 2.03023
lowerneck -4.71367 -3.9852 -6.8349
upperneck 4.59112 -5.22953 6.52426
head 2.7348 -2.54395 3.16578
lclavicle 3.27021e-15 -9.63707e-15 -1.65305e-32
lhumerus -26.9784 -5.35794 89.8139
lradius 25.7887 0 0
lwrist -30.4848 0 0
lhand -28.8625 29.9022 4.94542e-05
lfingers 7.12502 0 0
lthumb -2.21895 59.8704 4.79029e-05
rclavicle 3.27021e-15 -9.63707e-15 -1.65305e-32
rhumerus -32.7404 4.41217 -81.5583
rradius 32.6013 0 0
rwrist 3.80781 0 0
rhand -24.0979 -25.2569 0.000229208
rfingers 7.12502 0 0
rthumb 2.38282 -55.2248 8.97082e-05
7
root -2.96129 16.8086 -36.2964 3.22607 -0.622565 -2.71403
lfemur -17.5868 -3.0558 -7.55579
ltibia 37.5086 0 0
lfoot -17.7385 6.67358 -0.0137489
ltoes -24.698 0 0
rfemur -18.8452 -0.297511 14.7169
rtibia 40.541 0 0
rfoot -22.9734 -1.94042 0.00530382
rtoes -18.7409 0 0
lowerback 8.00612 2.54797 -2.04088
upperback -2.96398 3.28139 1.29828
thorax -7.8154 1.74246 2.03543
lowerneck -4.71261 -3.97426 -6.8332
upperneck 4.57117 -5.21462 6.53162
head 2.72697 -2.53635 3.1686
lclavicle 3.50986e-15 -9.69605e-15 -1.99999e-32
lhumerus -26.9601 -5.36012 89.8451
lradius 25.796 0 0
lwrist -30.4582 0 0
lhand -28.8665 29.8861 5.49208e-05
lfingers 7.12502 0 0
lthumb -2.22287 59.8544 5.3199e-05
rclavicle 3.50986e-15 -9.69605e-15 -1.99999e-32
rhumerus -32.7215 4.35224 -81.5232
rradius 32.5243 0 0
rwrist 3.79719 0 0
rhand -24.0752 -25.2937 0.000119774
rfingers 7.12502 0 0
rthumb 2.40475 -55.2614 -3.24122e-05
8
root -2.96209 16.8052 -36.2999 3.13366 -0.653039 -2.70288
lfemur -17.5024 -2.89786 -7.58851
ltibia 37.5131 0 0
lfoot -17.7405 6.63017 -0.0150628
ltoes -24.4054 0 0
rfemur -18.8044 -0.386345 14.7107
rtibia 40.5921 0 0
rfoot -22.952 -1.78452 0.00559414
rtoes -18.338 0 0
lowerback 8.16458 2.54468 -2.04951
upperback -2.93672 3.2735 1.30197
thorax -7.87816 1.73898 2.04015
lowerneck -4.70929 -3.9634 -6.83137
upperneck 4.55175 -5.19996 6.53825
head 2.71887 -2.52893 3.17116
lclavicle 3.73939e-15 -9.74886e-15 -2.34007e-32
lhumerus -26.9418 -5.36132 89.8754
lradius 25.8024 0 0
lwrist -30.432 0 0
lhand -28.8705 29.8707 5.91703e-05
lfingers 7.12502 0 0
lthumb -2.22669 59.8389 5.73163e-05
rclavicle 3.73939e-15 -9.74886e-15 -2.34007e-32
rhumerus -32.7027 4.29244 -81.4877
rradius 32.447 0 0
rwrist 3.78539 0 0
rhand -24.0489 -25.3313 -2.65985e-05
rfingers 7.12502 0 0
rthumb 2.43012 -55.2989 -0.000187237
